<svg width="218" height="218" viewBox="0 0 218 218" fill="none" xmlns="http://www.w3.org/2000/svg">
<path fill-rule="evenodd" clip-rule="evenodd" d="M60.0866 12.4114C75.079 4.79604 92.0757 0.5 110.079 0.5C128.084 0.5 144.886 4.79709 159.605 12.4211L157.305 16.8609C143.292 9.60229 127.278 5.5 110.079 5.5C92.8789 5.5 76.6564 9.60285 62.351 16.8693L60.0866 12.4114ZM0.5 108.882C0.5 90.8894 4.9349 73.9144 12.7835 58.9754L17.2098 61.3008C9.72813 75.5415 5.5 91.7206 5.5 108.882C5.5 126.044 9.72813 142.223 17.2098 156.464L12.7835 158.789C4.9349 143.85 0.5 126.875 0.5 108.882ZM205.752 59.2921C213.216 74.1608 217.382 91.0235 217.382 108.882C217.382 126.741 213.216 143.604 205.752 158.473L201.283 156.229C208.4 142.052 212.382 125.957 212.382 108.882C212.382 91.8076 208.4 75.7125 201.283 61.5354L205.752 59.2921ZM110.079 217.265C92.0757 217.265 75.079 212.969 60.0866 205.353L62.351 200.895C76.6564 208.162 92.8789 212.265 110.079 212.265C127.278 212.265 143.292 208.162 157.305 200.904L159.605 205.344C144.886 212.968 128.084 217.265 110.079 217.265Z" fill="#31E1B7"/>
</svg>
