<svg width="300" height="300" viewBox="0 0 300 300" fill="none" xmlns="http://www.w3.org/2000/svg">
<path fill-rule="evenodd" clip-rule="evenodd" d="M149.559 0C142.941 0 136.421 0.430041 130.028 1.26398L130.675 6.22198C136.854 5.41594 143.157 5 149.559 5C155.96 5 162.263 5.41594 168.443 6.22198L169.089 1.26399C162.696 0.430041 156.177 0 149.559 0ZM92.3089 11.3496C80.1487 16.3922 68.799 22.9922 58.5084 30.9001L61.5551 34.8647C71.5032 27.22 82.4732 20.8411 94.2241 15.9682L92.3089 11.3496ZM240.609 30.9001C230.319 22.9922 218.969 16.3922 206.809 11.3496L204.894 15.9682C216.644 20.8411 227.614 27.22 237.563 34.8647L240.609 30.9001ZM30.9001 58.5084C22.9922 68.799 16.3922 80.1487 11.3496 92.3089L15.9682 94.2241C20.8411 82.4732 27.22 71.5032 34.8647 61.5551L30.9001 58.5084ZM287.768 92.3089C282.725 80.1487 276.125 68.799 268.217 58.5084L264.253 61.5551C271.898 71.5032 278.277 82.4732 283.149 94.2241L287.768 92.3089ZM1.26399 130.028C0.430041 136.421 0 142.941 0 149.559C0 156.177 0.430041 162.696 1.26398 169.089L6.22198 168.443C5.41594 162.263 5 155.96 5 149.559C5 143.157 5.41594 136.854 6.22198 130.675L1.26399 130.028ZM299.118 149.559C299.118 142.941 298.688 136.421 297.854 130.028L292.896 130.675C293.702 136.854 294.118 143.157 294.118 149.559C294.118 155.96 293.702 162.263 292.896 168.443L297.854 169.089C298.688 162.696 299.118 156.177 299.118 149.559ZM11.3496 206.809C16.3922 218.969 22.9922 230.319 30.9001 240.609L34.8647 237.563C27.22 227.614 20.8411 216.644 15.9682 204.894L11.3496 206.809ZM268.217 240.609C276.125 230.319 282.725 218.969 287.768 206.809L283.149 204.894C278.277 216.644 271.898 227.614 264.253 237.563L268.217 240.609ZM58.5084 268.217C68.799 276.125 80.1487 282.725 92.3089 287.768L94.2241 283.149C82.4732 278.277 71.5032 271.898 61.5551 264.253L58.5084 268.217ZM206.809 287.768C218.969 282.725 230.319 276.125 240.609 268.217L237.563 264.253C227.614 271.898 216.644 278.277 204.894 283.149L206.809 287.768ZM130.028 297.854C136.421 298.688 142.941 299.118 149.559 299.118C156.177 299.118 162.696 298.688 169.089 297.854L168.443 292.896C162.263 293.702 155.96 294.118 149.559 294.118C143.157 294.118 136.854 293.702 130.675 292.896L130.028 297.854Z" fill="#31E1B7"/>
</svg>
